<?xml version="1.0" encoding="UTF-8"?><svg id="a" xmlns="http://www.w3.org/2000/svg" viewBox="0 0 84 84"><path d="M.77,41.94c0-10.52,0-21.04,0-31.56,0-5.88,3.71-9.61,9.57-9.61,21.11,0,42.23,0,63.34,0,5.82,0,9.56,3.72,9.56,9.51,0,21.15,0,42.3,0,63.45,0,5.74-3.75,9.5-9.46,9.51-21.19,0-42.37,0-63.56,0-5.71,0-9.45-3.77-9.45-9.51,0-10.59,0-21.19,0-31.78Zm25.75,9.22c-.37,.3-.67,.54-.97,.79-3.77,3.15-4.99,8.62-2.89,12.96,2.24,4.62,7.31,7.22,12.06,6.18,5.43-1.18,8.96-5.42,9.02-10.88,.03-3.01,0-6.01,.01-9.02,0-.29,.04-.58,.07-.96,5.83,4.56,12.67,2.8,15.94-1.19,1.72-2.1,2.63-4.5,2.57-7.22-.08-3.79-1.82-6.73-4.86-8.99,.39-.32,.7-.56,.99-.81,3.5-2.96,4.75-7.63,3.22-12.07-1.38-4.03-5.37-7.12-9.66-7.18-6.69-.1-13.39-.16-20.08,.01-7.69,.2-12.71,8.77-9.18,15.6,.87,1.69,2.29,3.11,3.46,4.65-6.22,4.51-6.15,13.48,.28,18.13Z"/><path d="M40.18,16.45v14.71c-3.16-.12-6.29,0-9.34-.41-3.39-.46-5.76-3.91-5.59-7.49,.16-3.41,2.84-6.51,6.19-6.79,2.77-.23,5.57-.12,8.36-.15,.13,0,.26,.09,.38,.14Z"/><path d="M43.84,16.47c3.08,0,6.1-.24,9.07,.06,3.5,.36,6.04,3.94,5.84,7.62-.2,3.65-3.16,6.68-6.88,6.86-2.64,.13-5.29,.02-8.02,.02v-14.56Z"/><path d="M40.18,34.65v14.69c-2.76,0-5.46,.03-8.16-.02-.66-.01-1.34-.21-1.97-.44-3.24-1.16-5.29-4.58-4.75-7.89,.58-3.58,3.42-6.22,6.93-6.32,2.6-.07,5.21-.01,7.95-.01Z"/><path d="M40.08,52.95c0,2.95,.26,5.79-.06,8.56-.46,3.91-4.23,6.56-8.12,6.11-4.01-.46-6.82-3.72-6.64-7.7,.16-3.63,3.08-6.62,6.79-6.94,.43-.04,.86-.03,1.29-.03,2.25,0,4.5,0,6.75,0Z"/><path d="M51.28,49.36c-4.15,0-7.51-3.3-7.51-7.36,0-4.07,3.36-7.36,7.52-7.36,4.18,0,7.48,3.25,7.47,7.36,0,4.11-3.3,7.36-7.48,7.36Z"/></svg>