<?xml version="1.0" encoding="UTF-8"?><svg id="a" xmlns="http://www.w3.org/2000/svg" viewBox="0 0 384 384"><path d="M309.89,384.75H74.85c-.45-.19-.88-.48-1.35-.57-25.12-4.74-40.74-23.54-40.75-49.18-.02-94.54-.01-189.08,.02-283.61,0-3.23,.03-6.52,.61-9.68C37.73,17.71,57.16,1.52,81.55,1.51c57.37-.03,114.74,.04,172.11-.08,6.44-.01,11.47,2.12,15.97,6.65,25.06,25.21,50.17,50.36,75.42,75.38,4.85,4.8,7.04,10.08,7.03,16.94-.14,61.11-.08,122.23-.08,183.34,0,17.59,.04,35.17-.02,52.76-.06,16.98-7.42,30.17-21.07,40.01-6.3,4.54-13.61,6.51-21.02,8.24ZM224.37,33.5h-4.18c-45.91,0-91.82,0-137.73,0-11.64,0-17.9,6.36-17.9,18.15,0,94.31,0,188.63,0,282.94,0,11.9,6.31,18.15,18.29,18.15,72.98,0,145.96,0,218.94,0,12.17,0,18.38-6.23,18.39-18.44,0-66.87,0-133.73,0-200.6,0-1.33,0-2.67,0-4.39h-4.87c-23.45,0-46.92-.38-70.36,.15-12.5,.28-21.14-5.76-20.75-20.52,.63-23.44,.17-46.9,.17-70.36v-5.09Zm32.1,7.94v55.63h55.64c-18.5-18.5-37.11-37.11-55.64-55.63Z"/><path d="M224.92,288.82h-28.57c-1.88-5.54-3.86-11.14-5.64-16.8-.66-2.1-1.64-2.95-3.95-2.93-11.97,.11-23.94,.13-35.91,0-2.49-.03-3.47,.95-4.14,3.16-1.49,4.88-3.13,9.72-4.95,14.49-.36,.94-1.79,2.08-2.74,2.1-8.59,.16-17.19,.1-26.3,.1,.5-1.6,.84-2.87,1.28-4.1,12.59-34.76,25.21-69.51,37.71-104.3,.98-2.74,2.09-3.92,5.21-3.83,8.35,.26,16.71,.14,25.06,.05,1.86-.02,2.92,.44,3.59,2.31,12.95,35.95,25.96,71.89,38.95,107.83,.2,.56,.25,1.18,.39,1.92Zm-42.38-41.02c-4.61-13.62-9.05-26.73-13.81-40.76-4.71,14.1-9.11,27.27-13.62,40.76h27.43Z"/><path d="M237.81,215.35h26.89v73.39h-26.89v-73.39Z"/><path d="M267.34,189.53c-.01,8.46-6.77,14.66-16.02,14.69-9.37,.03-16.34-6.34-16.28-14.87,.06-8.53,7.08-14.81,16.45-14.71,9.19,.1,15.85,6.36,15.84,14.88Z"/></svg>