<?xml version="1.0" encoding="UTF-8"?><svg id="a" xmlns="http://www.w3.org/2000/svg" viewBox="0 0 84 84"><path d="M67.49,83.59H16.49c-.1-.04-.19-.1-.29-.12-5.45-1.03-8.84-5.11-8.84-10.67,0-20.51,0-41.03,0-61.54,0-.7,0-1.42,.13-2.1C8.43,3.94,12.65,.43,17.94,.43c12.45,0,24.9,0,37.35-.02,1.4,0,2.49,.46,3.47,1.44,5.44,5.47,10.89,10.93,16.37,16.36,1.05,1.04,1.53,2.19,1.52,3.68-.03,13.26-.02,26.52-.02,39.78,0,3.82,0,7.63,0,11.45-.01,3.68-1.61,6.55-4.57,8.68-1.37,.98-2.95,1.41-4.56,1.79ZM48.93,7.37h-.91c-9.96,0-19.92,0-29.89,0-2.53,0-3.88,1.38-3.88,3.94,0,20.47,0,40.93,0,61.4,0,2.58,1.37,3.94,3.97,3.94,15.84,0,31.67,0,47.51,0,2.64,0,3.99-1.35,3.99-4,0-14.51,0-29.02,0-43.53v-.95h-1.06c-5.09,0-10.18-.08-15.27,.03-2.71,.06-4.59-1.25-4.5-4.45,.14-5.09,.04-10.18,.04-15.27v-1.1Zm6.97,1.72v12.07h12.07c-4.01-4.01-8.05-8.05-12.07-12.07Z"/><g><path d="M33.45,38.69v25.61h-5.78v-25.61h5.78Z"/><path d="M56.17,38.88v19.87c0,2.09,.08,4.29,.15,5.55h-5.13l-.23-2.7h-.11c-1.14,2.05-3.42,3.12-5.81,3.12-4.41,0-7.94-3.76-7.94-9.54-.04-6.27,3.88-9.92,8.32-9.92,2.32,0,4.07,.84,4.9,2.09h.08v-8.47h5.78Zm-5.78,14.7c0-.3,0-.72-.08-1.06-.34-1.52-1.6-2.81-3.38-2.81-2.66,0-3.99,2.36-3.99,5.28,0,3.15,1.56,5.13,3.95,5.13,1.67,0,3.04-1.14,3.38-2.77,.08-.42,.11-.87,.11-1.33v-2.43Z"/></g></svg>