<?xml version="1.0" encoding="UTF-8"?><svg id="a" xmlns="http://www.w3.org/2000/svg" viewBox="0 0 384 384"><path d="M192.53,4.23c49.86,0,99.72-.02,149.58,0,23.99,.01,37.65,13.72,37.66,37.79,.02,99.96,.02,199.93,0,299.89,0,24.08-13.67,37.84-37.61,37.85-100.21,.02-200.42,.02-300.63,0-23.46,0-37.29-13.89-37.29-37.43-.02-100.21-.02-200.42,0-300.63,0-23.56,13.82-37.45,37.25-37.47,50.35-.03,100.7-.01,151.05-.01ZM98.56,173.39c-.57,3.1-.84,5.22-1.34,7.27-4.85,19.92-10.14,39.74-14.42,59.78-1.86,8.72-2.74,17.93-2.22,26.81,.87,14.81,11.21,24.29,26.03,26.08,17.44,2.11,31.64-3.94,43.25-16.71,2.6-2.86,4.98-5.93,8.56-10.24-2.21,9.32-4.03,16.99-5.9,24.9h37.42c.75-2.8,1.48-5.36,2.12-7.93,6.78-26.98,13.02-54.12,20.62-80.87,2.44-8.59,7.33-17.08,13.08-23.97,6.73-8.07,19.82-9.01,28.41-4.29,7.62,4.19,10.95,13.15,8.98,24.4-.46,2.64-1.16,5.24-1.87,7.83-3.31,12-7.23,23.86-9.81,36.01-1.75,8.24-2.76,16.95-2.13,25.3,.94,12.34,8.43,20.46,20.39,24.11,26.52,8.09,54.22-12.29,56.61-41.98-4.37-1.68-8.82-3.39-13.32-5.12-2.65,5.32-4.77,10.25-7.46,14.85-4.54,7.78-10.41,11.13-15.16,8.34-6.4-3.75-5.07-10.12-3.63-15.78,3.66-14.42,8.27-28.63,11.51-43.14,2.11-9.44,3.64-19.3,3.4-28.92-.54-21.38-13.51-36.29-32.75-39.04-14.12-2.02-26,3.59-36.19,12.61-6.66,5.89-12.34,12.91-18.71,19.69,2.04-9.83,4.05-19.47,6.13-29.46h-57.46c-2.58,9.58-5.11,18.96-7.94,29.49h26.91c-5.44,21.7-10.4,42.28-15.81,62.74-3.64,13.78-12.39,23.68-25.32,29.56-6.49,2.95-13.89,5.74-20.21,.91-6.31-4.82-3.39-12.24-1.88-18.43,7.9-32.49,16.12-64.9,24.2-97.34,.55-2.2,.82-4.47,1.26-6.96h-63.33c-1.4,4.86-2.84,9.51-4.08,14.21-1.27,4.8-2.36,9.64-3.72,15.27h25.78Zm8.07-73.39c-.06,12.65,10.13,22.83,22.8,22.79,12.62-.04,23-10.43,22.87-22.88-.13-12.21-10.2-22.15-22.6-22.3-12.9-.16-23.01,9.65-23.07,22.4Z"/></svg>