<?xml version="1.0" encoding="UTF-8"?><svg id="a" xmlns="http://www.w3.org/2000/svg" viewBox="0 0 84 84"><defs><style>.b{fill-rule:evenodd;}</style></defs><path class="b" d="M72.94,23.3V62.06h-5.16V23.3h-10.31c-4.27,0-7.74-3.46-7.74-7.74V5.25H21.37c-2.85,0-5.16,2.31-5.16,5.16V62.06h-5.16V10.4C11.06,4.71,15.67,.09,21.37,.09h28.37l23.21,23.21Z"/><g><path d="M6.6,66.02h2.83v10.05c0,4.28-2.07,5.7-5.13,5.7-.8,0-1.77-.14-2.39-.37l.34-2.28c.46,.16,1.08,.28,1.75,.28,1.61,0,2.6-.74,2.6-3.43v-9.96Z"/><path d="M25.97,84c-2.16-.6-4.09-1.24-6.05-2-.32-.14-.67-.21-1.01-.23-3.59-.18-6.78-2.83-6.78-7.86s2.97-8.16,7.4-8.16,7.15,3.45,7.15,7.84c0,3.73-1.72,6.23-4,7.15v.09c1.33,.37,2.83,.69,4.09,.92l-.8,2.25Zm-2.28-10.3c0-2.94-1.45-5.68-4.25-5.68s-4.32,2.69-4.32,5.79,1.59,5.68,4.3,5.68,4.28-2.53,4.28-5.79Z"/><path d="M32.32,66.02v9.04c0,3.04,1.26,4.44,3.17,4.44,2.05,0,3.27-1.4,3.27-4.44v-9.04h2.83v8.85c0,4.78-2.46,6.9-6.19,6.9s-5.91-2-5.91-6.88v-8.88h2.83Z"/><path d="M53.89,74.64h-5.84v4.55h6.53v2.32h-9.36v-15.5h9.01v2.32h-6.19v4h5.84v2.3Z"/><path d="M57.46,66.25c1.08-.21,2.64-.34,4.28-.34,2.23,0,3.73,.37,4.78,1.24,.85,.71,1.33,1.79,1.33,3.13,0,2-1.36,3.36-2.83,3.86v.07c1.13,.41,1.79,1.5,2.16,2.99,.51,1.93,.92,3.73,1.22,4.32h-2.9c-.23-.46-.62-1.72-1.03-3.66-.46-2.02-1.17-2.67-2.78-2.71h-1.43v6.37h-2.81v-15.27Zm2.81,6.83h1.68c1.91,0,3.08-1.01,3.08-2.55,0-1.68-1.17-2.48-3.01-2.48-.9,0-1.47,.07-1.75,.14v4.9Z"/><path d="M74.11,81.52v-6.46l-4.9-9.04h3.24l1.84,3.98c.53,1.15,.92,2.02,1.36,3.08h.05c.37-.99,.81-1.95,1.33-3.08l1.86-3.98h3.2l-5.15,8.97v6.53h-2.83Z"/></g></svg>