<?xml version="1.0" encoding="UTF-8"?><svg id="a" xmlns="http://www.w3.org/2000/svg" viewBox="0 0 384 384"><path d="M309.89,384.75H74.85c-.45-.19-.88-.48-1.35-.57-25.12-4.74-40.74-23.54-40.75-49.18-.02-94.54-.01-189.08,.02-283.61,0-3.23,.03-6.52,.61-9.68C37.73,17.71,57.16,1.52,81.55,1.51c57.37-.03,114.74,.04,172.11-.08,6.44-.01,11.47,2.12,15.97,6.65,25.06,25.21,50.17,50.36,75.42,75.38,4.85,4.8,7.04,10.08,7.03,16.94-.14,61.11-.08,122.23-.08,183.34,0,17.59,.04,35.17-.02,52.76-.06,16.98-7.42,30.17-21.07,40.01-6.3,4.54-13.61,6.51-21.02,8.24ZM224.37,33.5h-4.18c-45.91,0-91.82,0-137.73,0-11.64,0-17.9,6.36-17.9,18.15,0,94.31,0,188.63,0,282.94,0,11.9,6.31,18.15,18.29,18.15,72.98,0,145.96,0,218.94,0,12.17,0,18.38-6.23,18.39-18.44,0-66.87,0-133.73,0-200.6,0-1.33,0-2.67,0-4.39h-4.87c-23.45,0-46.92-.38-70.36,.15-12.5,.28-21.14-5.76-20.75-20.52,.63-23.44,.17-46.9,.17-70.36v-5.09Zm32.1,7.94v55.63h55.64c-18.5-18.5-37.11-37.11-55.64-55.63Z"/><g><path d="M119.11,177.94c0-.16,.11-.3,.27-.32,7.88-1.32,18.89-2.31,34.34-2.31s27.05,3.02,34.61,9.07c7.39,5.71,12.1,15.12,12.1,26.21s-3.53,20.66-10.42,26.88c-8.74,8.06-21.67,11.93-36.79,11.93-3.36,0-6.38-.17-8.74-.67v40.33c0,.18-.15,.33-.33,.33h-24.71c-.18,0-.33-.15-.33-.33v-111.11Zm25.37,51.13c2.18,.5,4.7,.67,8.57,.67,13.61,0,22.01-6.89,22.01-18.31,0-10.42-7.22-16.63-20.16-16.63-5.04,0-8.57,.34-10.42,.84v33.43Z"/><path d="M212.19,267.2c4.7,2.86,14.45,6.05,22.01,6.05s10.92-2.52,10.92-6.72-2.52-6.38-11.93-9.58c-17.14-5.71-23.69-14.95-23.52-24.7,0-15.46,13.1-27.05,33.43-27.05,9.58,0,17.98,2.35,23.02,4.87l-4.37,17.64c-3.7-2.02-10.92-4.7-17.81-4.7-6.22,0-9.74,2.52-9.74,6.55s3.19,6.05,13.27,9.58c15.62,5.38,22.01,13.44,22.18,25.37,0,15.46-11.93,26.71-35.45,26.71-10.75,0-20.33-2.52-26.54-5.88l4.54-18.14Z"/></g></svg>