<?xml version="1.0" encoding="UTF-8"?><svg id="a" xmlns="http://www.w3.org/2000/svg" viewBox="0 0 84 84"><path d="M67.49,83.59H16.49c-.1-.04-.19-.1-.29-.12-5.45-1.03-8.84-5.11-8.84-10.67,0-20.51,0-41.03,0-61.54,0-.7,0-1.42,.13-2.1C8.43,3.94,12.65,.43,17.94,.43c12.45,0,24.9,0,37.35-.02,1.4,0,2.49,.46,3.47,1.44,5.44,5.47,10.89,10.93,16.37,16.36,1.05,1.04,1.53,2.19,1.52,3.68-.03,13.26-.02,26.52-.02,39.78,0,3.82,0,7.63,0,11.45-.01,3.68-1.61,6.55-4.57,8.68-1.37,.98-2.95,1.41-4.56,1.79ZM48.93,7.37h-.91c-9.96,0-19.92,0-29.89,0-2.53,0-3.88,1.38-3.88,3.94,0,20.47,0,40.93,0,61.4,0,2.58,1.37,3.94,3.97,3.94,15.84,0,31.67,0,47.51,0,2.64,0,3.99-1.35,3.99-4,0-14.51,0-29.02,0-43.53v-.95h-1.06c-5.09,0-10.18-.08-15.27,.03-2.71,.06-4.59-1.25-4.5-4.45,.14-5.09,.04-10.18,.04-15.27v-1.1Zm6.97,1.72v12.07h12.07c-4.01-4.01-8.05-8.05-12.07-12.07Z"/><g><path d="M26.39,40.32c1.69-.29,4.07-.5,7.42-.5s5.8,.65,7.42,1.94c1.58,1.22,2.59,3.24,2.59,5.62s-.76,4.43-2.23,5.76c-1.87,1.73-4.64,2.56-7.88,2.56-.72,0-1.37-.04-1.87-.14v8.71h-5.44v-23.94Zm5.44,11.01c.47,.11,1.01,.14,1.84,.14,2.92,0,4.72-1.48,4.72-3.92,0-2.23-1.55-3.56-4.32-3.56-1.08,0-1.84,.07-2.23,.18v7.16Z"/><path d="M46.81,52.45c0-2.59-.04-4.28-.14-5.79h4.68l.22,3.24h.14c.9-2.59,3.02-3.67,4.75-3.67,.5,0,.76,.04,1.15,.11v5.15c-.43-.07-.86-.14-1.48-.14-2.02,0-3.38,1.08-3.74,2.77-.07,.36-.11,.79-.11,1.22v8.93h-5.47v-11.81Z"/></g></svg>