<?xml version="1.0" encoding="UTF-8"?><svg id="a" xmlns="http://www.w3.org/2000/svg" viewBox="0 0 84 84"><path d="M42,83.63c-8.66,0-17.32,0-25.98,0-9.33,0-15.61-6.27-15.61-15.56,0-16.67,0-34.58,0-51.25C.42,7.52,6.69,.59,16.02,.59c17.32,0,34.64,0,51.96,0,9.33,0,15.6,6.92,15.61,16.23,0,16.67,0,34.58,0,51.25,0,9.3-6.27,15.56-15.6,15.57-8.66,0-17.32,0-25.98,0ZM63.54,31.63c-4.09-.2-7.74,.25-11.08,2.24-5.34,3.2-7.78,9.13-6.54,16.02,.99,5.51,5.08,9.34,11.3,10.26,4.18,.62,8.28-.05,12.31-1.3,1.61-.5,2.17-1.24,1.83-2.9-.21-1.04-.12-2.16-.12-3.24,0-10.17,0-20.34,0-30.51v-1.81h-7.7v11.23Zm-35.22,14.49c.4,.67,.68,1.11,.93,1.58,1.92,3.57,3.81,7.15,5.76,10.71,.26,.47,.76,1.15,1.16,1.16,2.88,.1,5.77,.05,8.9,.05-.44-.77-.72-1.28-1.02-1.77-3.18-5.22-6.34-10.44-9.56-15.63-.56-.9-.61-1.53-.03-2.46,3.02-4.87,5.96-9.79,8.92-14.69,.3-.49,.56-1,1.01-1.79-2,0-3.72,.15-5.41-.04-2.11-.23-3.28,.46-4.2,2.46-1.74,3.76-3.83,7.35-5.86,11.17-2.12-3.9-4.28-7.57-6.11-11.39-.84-1.74-1.8-2.39-3.68-2.24-2.06,.16-4.14,.04-6.49,.04,.5,.87,.78,1.38,1.08,1.89,3,5.07,5.98,10.15,9.01,15.2,.52,.86,.5,1.48-.02,2.33-3.13,5.05-6.21,10.14-9.3,15.22-.3,.49-.55,1-.96,1.75,2.53,0,4.79-.06,7.04,.03,1.12,.04,1.76-.33,2.28-1.33,2.1-4.02,4.27-8,6.55-12.24Z"/><path d="M63.53,38.22c0,4.88-.01,9.64,.01,14.39,0,1.07-.74,1.04-1.42,1.11-5.17,.56-8.43-2.29-8.62-7.5-.17-4.92,3.42-8.45,8.35-8.2,.48,.02,.96,.11,1.68,.2Z"/></svg>